<mxGraphModel dx="0" dy="0" grid="1" gridSize="10" guides="1" tooltips="1" connect="1" arrows="1" fold="1" page="0" pageScale="1" background="none" math="0" shadow="0">
  <root>
    <mxCell id="0" />
    <mxCell id="1" parent="0" />
    <mxCell id="node0" parent="1" vertex="1" value="&lt;p style=&quot;margin:0px;margin-top:4px;text-align:center;&quot;&gt;&lt;b&gt;src.domain.modelos.foguete.aerodinamica.ModeloAerodinamico.ModeloAerodinamico&lt;/b&gt;&lt;/p&gt;&lt;hr size=&quot;1&quot;/&gt;&lt;p style=&quot;margin:0 0 0 4px;line-height:1.6;&quot;&gt; altitude: &lt;br/&gt; constante_do_gas_ideal: &lt;br/&gt; velocidade: &lt;br/&gt; numero_de_mach: &lt;br/&gt; temperatura: &lt;br/&gt; numero_de_knudsen: &lt;/p&gt;&lt;hr size=&quot;1&quot;/&gt;&lt;p style=&quot;margin:0 0 0 4px;line-height:1.6;&quot;&gt; __init__(self): &lt;br/&gt; calcula(self): &lt;br/&gt; _computa_coef_de_arrasto_em_escoamento_livre_molecular(self): &lt;br/&gt; _interpola_coeficiente_de_arrasto(numero_de_mach: float): &lt;br/&gt; aerodinamica_multiplos_estagios(self, tempo: float, velocidade: float, area_de_referencia: list,                                         tempo_limite_separacao: list,                                         densidade_do_ar: float): &lt;br/&gt; atualizar_parametros(self, **kwargs): &lt;br/&gt; define_area_referencia(tempo: float, tempo_limite_separacao: list, area_de_referencia: list): &lt;/p&gt;" style="verticalAlign=top;align=left;overflow=fill;fontSize=14;fontFamily=Helvetica;html=1;rounded=0;shadow=0;comic=0;labelBackgroundColor=none;strokeWidth=1;">
      <mxGeometry x="-333" y="102" width="695" height="352" as="geometry" />
    </mxCell>
  </root>
</mxGraphModel>